<?xml version="1.0" encoding="iso-8859-1"?>
<!-- Uploaded to: SVG Repo, www.svgrepo.com, Generator: SVG Repo Mixer Tools -->
<svg height="800px" width="800px" version="1.1" id="Layer_1" xmlns="http://www.w3.org/2000/svg" xmlns:xlink="http://www.w3.org/1999/xlink" 
	 viewBox="0 0 512 512" xml:space="preserve">
<path style="fill:#959CB5;" d="M9.143,484.571V27.429C9.143,12.28,21.423,0,36.572,0H384c15.149,0,27.429,12.28,27.429,27.429
	v457.143C411.429,499.72,399.149,512,384,512H36.572C21.423,512,9.143,499.72,9.143,484.571z"/>
<path style="fill:#7F8499;" d="M411.429,374.395V137.605c-3.027-0.231-6.056-0.462-9.143-0.462
	c-65.643,0-118.857,53.214-118.857,118.857s53.215,118.857,118.857,118.857C405.373,374.857,408.401,374.626,411.429,374.395z"/>
<path style="fill:#C8FF82;" d="M36.572,429.714V82.286c0-5.049,4.094-9.143,9.143-9.143h329.143c5.049,0,9.143,4.094,9.143,9.143
	v347.429c0,5.049-4.094,9.143-9.143,9.143H45.714C40.665,438.857,36.572,434.763,36.572,429.714z"/>
<path style="fill:#B4E66E;" d="M384,138.693C327.062,147.507,283.429,196.592,283.429,256S327.062,364.491,384,373.307V138.693z"/>
<path style="fill:#5B5D6E;" d="M182.857,36.571c0-5.054,4.094-9.143,9.143-9.143h36.571c5.049,0,9.143,4.089,9.143,9.143
	s-4.094,9.143-9.143,9.143H192C186.951,45.714,182.857,41.625,182.857,36.571z"/>
<path style="fill:#464655;" d="M146.286,36.661c0-5.054,4.094-9.187,9.143-9.187c5.049,0,9.143,4.045,9.143,9.098v0.089
	c0,5.054-4.094,9.143-9.143,9.143C150.38,45.803,146.286,41.714,146.286,36.661z"/>
<path style="fill:#7F8499;" d="M182.857,475.429c0-7.571,6.138-13.714,13.714-13.714H224c7.576,0,13.714,6.143,13.714,13.714
	c0,7.571-6.138,13.714-13.714,13.714h-27.429C188.996,489.143,182.857,483,182.857,475.429z"/>
<g>
	<path style="fill:#A0D755;" d="M274.286,384h-73.143c-5.054,0-9.143-4.089-9.143-9.143s4.089-9.143,9.143-9.143h73.143
		c5.054,0,9.143,4.089,9.143,9.143S279.34,384,274.286,384z"/>
	<path style="fill:#A0D755;" d="M164.572,384h-18.286c-5.054,0-9.143-4.089-9.143-9.143s4.089-9.143,9.143-9.143h18.286
		c5.054,0,9.143,4.089,9.143,9.143S169.625,384,164.572,384z"/>
</g>
<circle style="fill:#B4E66E;" cx="210.286" cy="182.857" r="36.571"/>
<path style="fill:#FFC850;" d="M385.077,156.857c-42.462,7.037-76.267,41.845-82.318,84.458
	c-5.454,38.415,10.897,73.289,38.376,94.4c-7.711,14.095-16.379,24.762-22.458,31.373c-2.386,2.595-0.048,6.734,3.408,6.035
	c12.195-2.464,32.313-8.216,50.051-21.163c13.345,4.19,27.879,5.694,42.985,3.808c43.624-5.446,79.534-39.87,86.425-83.289
	C512.442,203.83,453.799,145.469,385.077,156.857z"/>
<circle style="fill:#FFDC64;" cx="402.286" cy="256" r="82.286"/>
<path style="fill:#FFFFFF;" d="M447.545,210.75c-10.349-10.349-28.429-10.358-38.794-0.009c-5.178,5.178-8.035,12.072-8.035,19.402
	c0,4.147,1.01,8.114,2.746,11.753l-46.425,46.425c-3.571,3.571-3.571,9.358,0,12.929c1.786,1.786,4.125,2.679,6.464,2.679
	s4.679-0.893,6.464-2.679l6.464-6.464l6.464,6.464c1.786,1.786,4.125,2.679,6.464,2.679s4.679-0.893,6.464-2.679
	c3.571-3.571,3.571-9.358,0-12.929l-6.464-6.464l27.032-27.032c3.639,1.737,7.606,2.746,11.753,2.746
	c7.33,0,14.215-2.857,19.393-8.035c0,0,0,0,0.009,0c5.178-5.187,8.026-12.072,8.026-19.393
	C455.572,222.813,452.714,215.92,447.545,210.75z M434.607,236.607c0,0,0,0-0.009,0c-3.438,3.455-9.447,3.455-12.92,0
	c-1.723-1.733-2.679-4.026-2.679-6.464c0-2.447,0.946-4.733,2.679-6.464c1.733-1.723,4.026-2.679,6.464-2.679
	c2.447,0,4.733,0.946,6.464,2.688c1.733,1.723,2.679,4.009,2.679,6.455C437.286,232.581,436.33,234.875,434.607,236.607z"/>
<path style="fill:#B4E66E;" d="M249.904,242.373c-3.885-3.066-9.368-2.101-12.681,1.576C230.572,251.327,221.012,256,210.286,256
	s-20.286-4.673-26.937-12.053c-3.313-3.677-8.797-4.641-12.681-1.576c-14.84,11.712-24.382,29.827-24.382,50.2V320
	c0,3.802,3.082,6.886,6.886,6.886h114.23c3.802,0,6.886-3.082,6.886-6.886v-27.429C274.286,272.199,264.744,254.083,249.904,242.373
	z"/>
<g>
	<path style="fill:#A0D755;" d="M182.857,320v-27.429c0-14.894,5.139-28.551,13.681-39.411c-5.053-2.096-9.575-5.202-13.19-9.213
		c-3.313-3.677-8.795-4.642-12.681-1.576c-14.84,11.712-24.382,29.827-24.382,50.2V320c0,3.802,3.082,6.885,6.886,6.885h36.571
		C185.94,326.885,182.857,323.802,182.857,320z"/>
	<path style="fill:#A0D755;" d="M201.143,173.714c0-10.809,4.779-20.422,12.235-27.118c-1.037-0.088-2.033-0.311-3.093-0.311
		c-20.198,0-36.571,16.374-36.571,36.571s16.374,36.571,36.571,36.571c9.389,0,17.861-3.64,24.336-9.454
		C215.896,208.379,201.143,192.853,201.143,173.714z"/>
</g>
</svg>